<svg xmlns="http://www.w3.org/2000/svg" width="102" height="105" viewBox="0 0 102 105"><g><g><path fill="#fff" d="M39.666 47.727V21c0-.697.376-1.338.979-1.674a1.883 1.883 0 0 1 1.925.062l20.778 13.364c.544.351.874.959.874 1.611 0 .653-.33 1.26-.874 1.612L42.57 49.338a1.883 1.883 0 0 1-1.923.063 1.915 1.915 0 0 1-.98-1.674zm3.778-3.477l15.372-9.887-15.372-9.887zM102 0v105H0V0zM3.778 3.818v63h94.444v-63zm94.444 97.364V70.636H3.778v30.546zm-7.555-15.273c0 1.055-.845 1.909-1.89 1.909H43.445v3.818c0 1.056-.844 1.91-1.889 1.91a1.898 1.898 0 0 1-1.889-1.91v-3.818h-7.555a1.898 1.898 0 0 1-1.889-1.91c0-1.055.844-1.908 1.89-1.908h7.554v-3.818c0-1.056.845-1.91 1.89-1.91 1.044 0 1.888.854 1.888 1.91V84h45.334c1.044 0 1.889.853 1.889 1.909zM15.11 80.182v11.454c0 1.056-.844 1.91-1.889 1.91a1.898 1.898 0 0 1-1.889-1.91V80.182c0-1.056.845-1.91 1.89-1.91 1.044 0 1.888.854 1.888 1.91zm7.556 0v11.454c0 1.056-.845 1.91-1.89 1.91a1.898 1.898 0 0 1-1.888-1.91V80.182c0-1.056.844-1.91 1.889-1.91 1.044 0 1.889.854 1.889 1.91z"/></g></g></svg>