<svg xmlns="http://www.w3.org/2000/svg" width="102" height="107" viewBox="0 0 102 107"><g><g><path fill="#fff" d="M101.998 55.365v6.43c0 7.822-6.197 14.229-14.011 14.7-.775 11.735-6.63 17.557-11.574 20.412-3.508 2.023-7.04 2.81-9.272 3.124-1.117 4.002-4.83 6.969-9.25 6.969h-6.858c-5.285 0-9.591-4.271-9.591-9.487 0-5.215 4.306-9.463 9.591-9.463h6.835c4.26 0 7.883 2.742 9.136 6.541 4.556-.741 14.376-4.001 15.492-18.073H78.67c-1.504 0-2.734-1.214-2.734-2.697V43.339c0-1.483 1.23-2.698 2.734-2.698h3.918v-4.068c0-17.78-12.826-31.179-29.868-31.179h-3.44c-17.019 0-29.868 13.398-29.868 31.179v4.068h3.918c1.504 0 2.734 1.215 2.734 2.698v30.504c0 1.484-1.23 2.698-2.734 2.698h-8.406C6.698 76.54 0 69.93 0 61.817v-6.43c0-7.8 6.174-14.183 13.943-14.7v-4.114c0-9.846 3.531-18.995 9.933-25.783C30.438 3.82 39.46 0 49.302 0h3.44c9.842 0 18.864 3.821 25.425 10.79 6.402 6.788 9.934 15.937 9.934 25.783v4.114c7.769.494 13.92 6.9 13.897 14.678zm-81.357-9.328h-5.673c-5.217 0-9.455 4.18-9.455 9.328v6.43c0 5.147 4.238 9.328 9.455 9.328h5.673zm41.374 51.5c0-2.249-1.846-4.07-4.124-4.07h-6.858c-2.278 0-4.123 1.821-4.123 4.07 0 2.247 1.845 4.068 4.123 4.068h6.858c2.278 0 4.124-1.821 4.124-4.069zm34.538-42.172c0-5.147-4.238-9.328-9.455-9.328h-5.673v25.086h5.673c5.217 0 9.455-4.18 9.455-9.329z"/></g></g></svg>