<svg xmlns="http://www.w3.org/2000/svg" width="88" height="106" viewBox="0 0 88 106"><g><g><path fill="#fff" d="M87.568 96.133a1.69 1.69 0 0 1-1.73.496L72.19 92.673l-6.853 12.451a1.69 1.69 0 0 1-3.044-.169L47.004 68.03c-.99.087-1.992.134-3.004.134-9.808 0-18.66-4.17-24.881-10.827L4.6 92.401l11.568-3.353a1.69 1.69 0 0 1 1.951.808l5.81 10.554 11.76-28.403a1.69 1.69 0 1 1 3.124 1.294l-13.106 31.654a1.692 1.692 0 0 1-3.044.17L15.81 92.672 2.163 96.63A1.691 1.691 0 0 1 .13 94.357L16.67 54.41a33.911 33.911 0 0 1-6.74-20.328C9.93 15.289 25.214 0 44 0s34.07 15.289 34.069 34.082c0 16.582-11.9 30.434-27.606 33.464l13.608 32.864 5.81-10.554a1.69 1.69 0 0 1 1.95-.808L83.4 92.4 70.718 61.773a1.692 1.692 0 0 1 3.124-1.295l14.028 33.88c.249.6.131 1.29-.302 1.775zM44 64.78c16.921 0 30.687-13.772 30.687-30.7C74.687 17.155 60.921 3.384 44 3.384S13.312 17.154 13.312 34.082C13.312 51.009 27.08 64.78 44 64.78zm19.136-35.342l-8.083 8.235 1.7 11.416a1.691 1.691 0 0 1-2.426 1.763L44 45.708l-10.327 5.145a1.69 1.69 0 0 1-2.426-1.764l1.7-11.415-8.083-8.235a1.692 1.692 0 0 1 .927-2.853l11.377-1.91L42.5 14.442a1.69 1.69 0 0 1 3 0l5.33 10.234 11.379 1.91a1.69 1.69 0 0 1 .927 2.853zm-4.687-.054l-9.008-1.512a1.69 1.69 0 0 1-1.22-.887L44 18.883l-4.222 8.103a1.69 1.69 0 0 1-1.22.887l-9.008 1.512 6.4 6.52c.371.38.544.91.466 1.434l-1.346 9.039 8.176-4.074a1.687 1.687 0 0 1 1.508 0l8.176 4.074-1.346-9.039a1.691 1.691 0 0 1 .466-1.433zm12.619 8.302C69.278 51.204 57.64 61.398 44 61.398c-15.057 0-27.306-12.254-27.306-27.316S28.944 6.766 44 6.766c13.64 0 25.277 10.193 27.067 23.71a1.691 1.691 0 1 1-3.352.445C66.147 19.079 55.952 10.148 44 10.148c-13.192 0-23.924 10.737-23.924 23.934 0 13.197 10.732 23.933 23.924 23.933 11.951 0 22.147-8.93 23.715-20.772a1.69 1.69 0 1 1 3.353.444z"/></g></g></svg>