<svg xmlns="http://www.w3.org/2000/svg" width="102" height="110" viewBox="0 0 102 110"><g><g><path fill="#fff" d="M74.67 69.666H63.743a1.828 1.828 0 0 1-1.821-1.833c0-1.012.816-1.833 1.82-1.833H74.67c1.006 0 1.821.82 1.821 1.833a1.828 1.828 0 0 1-1.82 1.833zm0-44h18.213c1.005 0 1.82.822 1.82 1.834v36.666A1.828 1.828 0 0 1 92.884 66a1.828 1.828 0 0 1-1.822-1.834V29.333h-16.39c-5.022 0-9.107-4.112-9.107-9.167V11c0-1.011.816-1.833 1.821-1.833s1.821.822 1.821 1.833v9.167c0 3.033 2.452 5.5 5.464 5.5zm1.821 20.167a1.828 1.828 0 0 1-1.82 1.833H60.1a1.828 1.828 0 0 1-1.822-1.833c0-1.012.816-1.833 1.821-1.833h14.57c1.006 0 1.821.821 1.821 1.833zm-23.675 1.833H41.888a1.828 1.828 0 0 1-1.821-1.833c0-1.012.816-1.833 1.821-1.833h10.928c1.005 0 1.82.821 1.82 1.833a1.828 1.828 0 0 1-1.82 1.833zM41.888 55h3.642c1.006 0 1.822.821 1.822 1.833a1.828 1.828 0 0 1-1.822 1.833h-3.642a1.828 1.828 0 0 1-1.821-1.833c0-1.012.816-1.833 1.82-1.833zm-1.821-20.167c0-1.012.816-1.833 1.82-1.833H60.1c1.005 0 1.821.821 1.821 1.833a1.828 1.828 0 0 1-1.82 1.834H41.887a1.828 1.828 0 0 1-1.821-1.834zm10.927 22c0-1.012.816-1.833 1.821-1.833h18.213c1.005 0 1.82.821 1.82 1.833a1.828 1.828 0 0 1-1.82 1.833H52.815a1.828 1.828 0 0 1-1.82-1.833zM67.385 77c1.005 0 1.821.82 1.821 1.833a1.828 1.828 0 0 1-1.82 1.833h-3.643a1.828 1.828 0 0 1-1.822-1.833c0-1.012.816-1.833 1.822-1.833zm-9.106-9.167a1.828 1.828 0 0 1-1.821 1.833h-14.57a1.828 1.828 0 0 1-1.821-1.833c0-1.012.816-1.833 1.82-1.833h14.57c1.006 0 1.822.82 1.822 1.833zm0 11a1.828 1.828 0 0 1-1.821 1.833h-14.57a1.828 1.828 0 0 1-1.821-1.833c0-1.012.816-1.833 1.82-1.833h14.57c1.006 0 1.822.82 1.822 1.833zm41.54 6.609l-23.861 24.02c-.34.343-.805.537-1.288.537H63.743a1.828 1.828 0 0 1-1.822-1.833v-11c0-.485.194-.953.534-1.296l23.862-24.02c2.795-2.813 7.06-2.818 9.86 0l3.642 3.666c2.902 2.923 2.902 7.005 0 9.926zm-31.68 9.891l2.889 2.908L86.85 82.313l-2.888-2.908zm5.777 11l-8.352-8.408v8.408zm18.398-18.52l-2.888-2.908-15.823 15.928 2.888 2.908zm4.93-9.704l-3.642-3.667c-1.446-1.454-3.271-1.446-4.71 0l-2.355 2.37 8.352 8.408 2.355-2.37c1.474-1.484 1.474-3.256 0-4.741zM58.28 108.167A1.828 1.828 0 0 1 56.46 110H9.105C4.085 110 0 105.887 0 100.833V9.166C0 4.112 4.085 0 9.106 0h58.28c.482 0 .946.193 1.287.538L86.885 18.87a1.84 1.84 0 0 1 0 2.592 1.81 1.81 0 0 1-2.575 0L66.63 3.667H9.106c-3.013 0-5.464 2.467-5.464 5.5v91.666c0 3.032 2.451 5.5 5.464 5.5h47.352c1.005 0 1.821.821 1.821 1.834zm0-18.334a1.828 1.828 0 0 1-1.821 1.833h-14.57a1.828 1.828 0 0 1-1.821-1.833c0-1.012.816-1.834 1.82-1.834h14.57c1.006 0 1.822.822 1.822 1.834zm-25.497-44a1.828 1.828 0 0 1-1.821 1.833H20.033a1.828 1.828 0 0 1-1.82-1.833v-11c0-1.012.815-1.834 1.82-1.834h10.928c1.005 0 1.82.822 1.82 1.834zm-3.643-9.166h-7.284v7.332h7.284zM18.212 89.833v-11c0-1.012.816-1.833 1.821-1.833h10.928c1.005 0 1.82.82 1.82 1.833v11a1.828 1.828 0 0 1-1.82 1.833H20.033a1.828 1.828 0 0 1-1.821-1.833zm3.643-1.834h7.284v-7.333h-7.284zm-3.11-22.537a1.84 1.84 0 0 1 0-2.592 1.81 1.81 0 0 1 2.576 0l2.072 2.084 6.052-9.139a1.814 1.814 0 0 1 2.526-.508c.836.561 1.062 1.7.505 2.543l-7.285 11a1.815 1.815 0 0 1-2.803.279z"/></g></g></svg>