<svg xmlns="http://www.w3.org/2000/svg" width="83" height="84" viewBox="0 0 83 84"><g><g><path fill="#00bfa5" d="M81.807 32.94l-4.15 4.181a3.68 3.68 0 0 1-2.619 1.097 3.68 3.68 0 0 1-2.618-1.097l-4.15-4.181a3.774 3.774 0 0 1 0-5.295l.255-.257c-9.676-6.031-22.192-5.757-31.613.806a3.763 3.763 0 0 1-.833 3.992l-4.15 4.18a3.68 3.68 0 0 1-2.619 1.098 3.54 3.54 0 0 1-1.343-.257c-6.513 9.492-6.768 22.103-.8 31.853l.12-.12a3.681 3.681 0 0 1 2.619-1.097c.986 0 1.921.395 2.619 1.097l4.149 4.18a3.775 3.775 0 0 1 0 5.295l-4.15 4.181a3.68 3.68 0 0 1-2.618 1.097 3.68 3.68 0 0 1-2.62-1.097l-4.149-4.18a3.774 3.774 0 0 1 0-5.295l.698-.703c-3.64-5.5-5.561-11.891-5.578-18.59a33.795 33.795 0 0 1 2.16-12.047l-7.245 7.3a6.97 6.97 0 0 1-1.343 7.882 6.764 6.764 0 0 1-4.864 2.039 6.832 6.832 0 0 1-4.863-2.04c-2.687-2.69-2.687-7.093 0-9.8a6.763 6.763 0 0 1 4.863-2.04c1.037 0 2.04.223 2.96.669l13.042-13.143-.442-.445a3.734 3.734 0 0 1-1.088-2.639c0-.994.39-1.936 1.088-2.638l4.184-4.198a3.68 3.68 0 0 1 5.237 0l.442.445 13.044-13.142a7.074 7.074 0 0 1-.664-2.982c0-1.85.732-3.58 2.024-4.9A6.763 6.763 0 0 1 51.656.11c1.836 0 3.554.737 4.863 2.04a6.866 6.866 0 0 1 2.024 4.9c0 1.85-.731 3.598-2.024 4.9a6.764 6.764 0 0 1-4.863 2.04 6.743 6.743 0 0 1-2.96-.67l-7.244 7.3a33.11 33.11 0 0 1 11.887-2.176h.068c6.65.017 12.993 1.953 18.451 5.62l.562-.565a3.68 3.68 0 0 1 2.618-1.097 3.68 3.68 0 0 1 2.62 1.097l4.132 4.164c1.462 1.473 1.462 3.838.017 5.277zM29.889 72.864l-2.908 2.93 2.908 2.93 2.908-2.93zM49.343 7.066c0 .617.238 1.2.663 1.629a2.268 2.268 0 0 0 1.616.668c.612 0 1.19-.24 1.615-.668a2.303 2.303 0 0 0 .663-1.629c0-.616-.238-1.199-.663-1.627a2.268 2.268 0 0 0-1.615-.668c-.613 0-1.19.24-1.616.668a2.332 2.332 0 0 0-.663 1.627zM8.581 50.452a2.268 2.268 0 0 0-1.616-.669 2.297 2.297 0 0 0 0 4.592 2.297 2.297 0 0 0 1.615-3.924zm23.603-20.905l-1.445-1.456-1.446-1.457-2.908 2.93 2.908 2.93zm45.745.754l-2.908-2.93-2.908 2.93 2.908 2.93z"/></g></g></svg>