<svg xmlns="http://www.w3.org/2000/svg" width="73" height="72" viewBox="0 0 73 72"><g><g><path fill="#00bfa5" d="M64.231 25.546a5.551 5.551 0 0 1 1.638 3.952 5.55 5.55 0 0 1-1.65 3.963l-3.146 3.147a5.55 5.55 0 0 1-3.953 1.638c-1.1 0-2.157-.317-3.056-.909l-11.94 29.897a6.666 6.666 0 0 1-4.866 4.086c-.453.091-.911.14-1.363.14-.04 0-.135 0-.175-.003a6.668 6.668 0 0 1-4.57-1.96L2.717 41.378a6.703 6.703 0 0 1 2.029-10.9l30.348-12.156a5.555 5.555 0 0 1-.83-2.936c0-1.495.584-2.898 1.64-3.954l3.154-3.156a5.563 5.563 0 0 1 3.955-1.638c1.493 0 2.895.58 3.951 1.636zm-15.69 13.568c-9.369-9.994-18.733-6.995-28.096-10.109L6.548 34.572a2.228 2.228 0 0 0-1.3 1.631 2.23 2.23 0 0 0 .614 1.997l28.45 28.136a2.214 2.214 0 0 0 2.037.605 2.233 2.233 0 0 0 1.625-1.366zm12.527-10.408L43.8 11.435a1.119 1.119 0 0 0-1.58 0l-3.161 3.162a1.121 1.121 0 0 0 0 1.58l3.833 3.834-18.978 7.602c1.888.407 3.811.662 5.793.906 6.17.757 13.006 1.604 19.735 8.32l-.266.678 3.202-8.021 3.951 3.95a1.115 1.115 0 0 0 1.58 0l3.162-3.16c.44-.436.44-1.144-.003-1.58zM32.03 41.284a5.593 5.593 0 0 1 5.588-5.588 5.593 5.593 0 0 1 5.588 5.588 5.595 5.595 0 0 1-5.588 5.588 5.595 5.595 0 0 1-5.588-5.588zm2.235 0a3.352 3.352 0 1 0 6.705.001 3.352 3.352 0 0 0-6.705-.001zm38-35.764a5.593 5.593 0 0 1-5.589 5.588 5.593 5.593 0 0 1-5.588-5.588 5.593 5.593 0 0 1 5.588-5.588 5.593 5.593 0 0 1 5.588 5.588zm-2.236 0a3.354 3.354 0 0 0-6.706 0 3.354 3.354 0 0 0 6.706 0zm-46.94 27.94a4.475 4.475 0 0 1 4.47 4.47 4.474 4.474 0 0 1-4.47 4.471 4.474 4.474 0 0 1-4.47-4.47 4.475 4.475 0 0 1 4.47-4.47zm-2.235 4.47a2.236 2.236 0 1 0 4.471 0 2.236 2.236 0 0 0-4.471 0zm8.94 11.177a2.235 2.235 0 1 1 .002 4.47 2.235 2.235 0 0 1-.001-4.47zM65.56 15.58a2.235 2.235 0 1 1 0 4.47 2.235 2.235 0 0 1 0-4.47z"/></g></g></svg>