<svg xmlns="http://www.w3.org/2000/svg" width="80" height="60" viewBox="0 0 80 60"><g><g><path fill="#00bfa5" d="M50.423 1.798c.188.329.224.68.109 1.051L34.369 58.222c-.116.371-.34.65-.672.836a1.215 1.215 0 0 1-1.018.107l-2.687-.729a1.404 1.404 0 0 1-.845-.665 1.273 1.273 0 0 1-.108-1.05L45.202 1.347c.115-.372.34-.65.672-.837a1.22 1.22 0 0 1 1.018-.107l2.687.73c.375.114.657.335.844.664zm-25.5 11.131L7.893 29.785l17.03 16.856c.289.286.434.615.434.986 0 .372-.145.702-.434.988l-2.167 2.143c-.289.286-.62.43-.996.43-.377 0-.708-.143-.997-.43L.57 30.771c-.29-.286-.434-.614-.434-.986s.144-.7.434-.987L20.763 8.811c.289-.285.62-.429.997-.429.375 0 .707.144.996.43l2.167 2.144c.289.286.434.615.434.987s-.145.7-.434.986zm54.51 16.855c0 .372-.144.701-.432.987L58.808 50.758c-.289.286-.621.43-.996.43-.376 0-.708-.143-.998-.43l-2.166-2.143c-.288-.286-.433-.616-.433-.988 0-.37.145-.7.433-.986l17.03-16.856-17.03-16.856c-.288-.286-.433-.614-.433-.987 0-.372.145-.7.433-.986l2.166-2.145c.29-.286.622-.43.998-.43.375 0 .707.144.996.43L79 28.798c.288.286.432.615.432.986z"/></g></g></svg>