<svg xmlns="http://www.w3.org/2000/svg" width="77" height="78" viewBox="0 0 77 78"><g><g><path fill="#fff" d="M76.14 19.469c-1.611 7.685-9.255 11.457-16.585 11.07-2.407-.126-4.995-.782-7.643-1.533 1.398 7.26.528 15.459-5.055 20.806-5.632 5.393-12.377 6.098-19.472 5.22.198 1.73.335 3.455.322 5.164-.044 5.73-.689 14.996-6.914 17.45-.994.392-1.676-1.265-.724-1.734.84-.414 1.53-1.025 2.11-1.756-.734-1.523-1.12-3.245-2.099-4.707a36.122 36.122 0 0 0-5.415-6.32c-3.47-3.228-7.37-6.167-11.84-7.787a8.829 8.829 0 0 0-1.332 1.668c-.534.863-1.703.113-1.319-.777 2.756-6.387 10.681-6.194 16.486-5.354 2.538.368 5.225.931 7.945 1.4l-.012-.086c-.5-3.389-.992-6.961-.924-10.43-.289-.202-.217-.607.026-.8.21-4.606 1.495-8.987 5.182-12.458 5.968-5.619 12.635-4.584 19.53-2.783-.7-2.235-1.436-4.465-1.875-6.824-1.302-6.982 1.3-15.509 8.191-18.72.699-.325 1.685.393 1.16 1.17-.686 1.013-1.497 1.893-2.324 2.745 1.2 4.034 4.18 7.464 6.978 10.48 3.217 3.468 6.411 6.584 10.458 9.076.15.092.255.205.33.328 1.21-1.311 2.152-2.986 2.715-5.093.368-1.377 2.39-.793 2.1.585zM24.772 67.214c-.333.059-.687-.055-.879-.428-2.042-3.962-4.188-7.572-8.081-9.967-2.335-1.436-4.803-2.946-7.368-3.926a.826.826 0 0 1-.192-.102c-1.49.246-2.885.706-4.099 1.492 4.748 1.255 9.166 4.721 12.55 8.064 1.97 1.945 5.677 5.615 6.973 9.108.527-1.357.865-2.836 1.096-4.24zm.145-12.546a76.668 76.668 0 0 1-1.545-.276c-3.281-.622-7.622-1.73-11.7-1.818 5.749 2.163 11.191 6.498 13.418 12.214l.01-.096c.345-3.391.205-6.686-.183-10.024zm9.889-1.658c-1.324-1.736-2.369-3.812-3.801-5.43-1.53-1.728-3.12-3.192-4.955-4.417.068 3.107.593 6.304 1.035 9.508 2.608.367 5.215.56 7.72.34zm8.164-2.89c-2.785-2.156-5.181-5.157-7.71-7.53-2.613-2.453-5.36-4.724-8.083-7.037-.733 1.954-1.053 3.982-1.12 6.057 2.366 1.077 4.541 2.76 6.24 4.667 1.61 1.809 3.72 4.064 4.714 6.417 2.107-.428 4.113-1.238 5.959-2.574zm5.014-5.842c-1.352-.344-2.941-1.5-3.66-1.991-2.502-1.711-4.886-3.648-7.032-5.798-.737-.737-4.917-4.781-5.6-7.384-.39.327-.774.683-1.147 1.083-1.256 1.342-2.187 2.74-2.868 4.18 3.194 1.944 6.167 4.372 8.92 6.872 2.583 2.348 5.71 4.788 7.865 7.648.252-.237.503-.478.748-.74a18.561 18.561 0 0 0 2.774-3.87zm1.862-5.214c-1.288-.081-2.584-1.281-3.578-1.999-1.514-1.093-3.038-2.242-4.303-3.63-1.775-1.949-3.381-4.334-3.308-6.979-2 .109-3.917.61-5.689 1.719 1.09 3.456 4.52 6.25 7.136 8.502 1.932 1.663 3.95 3.287 6.155 4.572.723.42 1.79.679 2.626 1.088.42-1.056.737-2.152.96-3.273zm.35-5.112c-.119-2-.528-3.888-1.043-5.74-3.11-.89-6.248-1.702-9.23-1.77.527 2.927 2.482 5.195 4.825 7.098a37.521 37.521 0 0 0 4.044 2.856c.471.288.947.513 1.335.839a20.24 20.24 0 0 0 .069-3.283zm11.198-5.973c-4.28-2.775-10.205-10.846-12.83-14.844-.358 4.732 1.55 8.828 2.774 13.38.641.175 1.284.35 1.928.52 2.585.68 5.407 1.06 8.128.944zm4.278-.657c1.544-.44 2.978-1.115 4.23-2.061-4.65-2.852-8.431-6.577-11.871-10.822-2.185-2.696-4.69-5.82-5.457-9.332-1.655 1.704-3.2 3.46-3.746 6.115 2.343 2.887 4.531 5.898 6.954 8.721 1.835 2.138 5.706 7.696 9.037 6.87.41-.101.758.16.853.509z"/></g></g></svg>