<svg xmlns="http://www.w3.org/2000/svg" width="57" height="59" viewBox="0 0 57 59"><g><g><path fill="#00bfa5" d="M32.157 8.385H56.18v8.075H32.157zm0 32.298H56.18v8.075H32.157zM16.143 8.385h8.007v8.075h-8.007v8.074H8.136V16.46H.128V8.385h8.008V.31h8.007zm1.6 36.336l6.407 6.458-5.605 5.654-6.406-6.459-6.406 6.459-5.605-5.654 6.407-6.458-6.407-6.458 5.605-5.654 6.406 6.458 6.406-6.458 5.605 5.654zm30.429 10.093c0 2.228-1.794 4.038-4.004 4.038-2.209 0-4.003-1.81-4.003-4.038s1.794-4.037 4.003-4.037c2.21 0 4.004 1.81 4.004 4.037zm0-20.186c0 2.227-1.794 4.037-4.004 4.037-2.209 0-4.003-1.81-4.003-4.037 0-2.228 1.794-4.038 4.003-4.038 2.21 0 4.004 1.81 4.004 4.038z"/></g></g></svg>