<svg xmlns="http://www.w3.org/2000/svg" width="75" height="64" viewBox="0 0 75 64"><g><g><path fill="#00bfa5" d="M6.566 29.433c-2.591-2.227-4.004-5.527-4.004-9.21 0-6.69 5.422-12.135 12.088-12.135 3.346 0 6.375 1.374 8.567 3.586C25.208 5.097 31.298.294 38.492.294c8.808 0 15.964 7.193 15.964 16.033 0 5.296-2.596 9.986-6.55 12.906 3.76.177 6.823 2.942 7.508 6.564l14.183-7.186c.265-.133.437-.202.734-.202 2.792 0 4.742 2.28 4.742 5.193v24.665c0 2.913-2.068 5.196-4.861 5.196-.297 0-.472-.07-.737-.205l-14.33-7.146v.255c0 4.462-3.142 7.73-7.588 7.73H8.64c-4.445 0-8.537-3.267-8.537-7.73v-19.06c0-3.827 2.9-7.035 6.462-7.874zm48.579 10.553v11.857l15.3 7.758c.57-.174.833-.772.833-1.334V33.602c0-.561-.263-1.158-.835-1.333zM22.742 28.851h6.298c-1.369-.952-2.572-2.237-3.558-3.632-.682 1.38-1.614 2.68-2.74 3.632zm3.633-11.533c.154.626.263 1.269.316 1.93 1.31 5.33 6.099 9.3 11.808 9.3 6.714 0 12.175-5.482 12.175-12.22 0-6.74-5.461-12.223-12.175-12.223-6.713 0-12.175 5.484-12.175 12.223 0 .334.024.662.05.99zM6.359 20.223c0 4.59 3.72 8.324 8.293 8.324 4.572 0 8.292-3.734 8.292-8.324 0-.134-.014-.263-.02-.396a15.966 15.966 0 0 1-.316-1.93c-1.006-3.46-4.189-5.997-7.956-5.997-4.573 0-8.293 3.734-8.293 8.323zm44.99 35.781v-19.06a4.275 4.275 0 0 0-4.267-4.282H8.167A4.275 4.275 0 0 0 3.9 36.945v19.06a4.275 4.275 0 0 0 4.267 4.282h38.915a4.275 4.275 0 0 0 4.267-4.283z"/></g></g></svg>