<svg viewBox="0 0 64 64" xmlns="http://www.w3.org/2000/svg">
<g id="outling-cut">
<path d="M61,12H58a1,1,0,0,0-2,0H54V9a1,1,0,0,0-1-1H37.988a6.363,6.363,0,0,0-1.867-4.293,5.828,5.828,0,0,0-8.242,0A6.363,6.363,0,0,0,26.012,8H11a1,1,0,0,0-1,1v3H3a1,1,0,0,0-1,1V29a1,1,0,0,0,1,1H6a1,1,0,0,0,2,0h2.3A7.024,7.024,0,0,0,14,34.315V38a8.9,8.9,0,0,0-3.959.916,1,1,0,1,0,.881,1.8A6.923,6.923,0,0,1,14,40V51H7V47a6.916,6.916,0,0,1,1.537-4.376,1,1,0,1,0-1.56-1.252A9.02,9.02,0,0,0,5,47v5a1,1,0,0,0,1,1H7v6a3,3,0,0,0,3,3H54a3,3,0,0,0,3-3V52a1,1,0,0,0-1-1V46a1,1,0,0,0,1-1V42.629A5.635,5.635,0,0,0,51.371,37H50V34.315A7.024,7.024,0,0,0,53.705,30H61a1,1,0,0,0,1-1V24.25a1,1,0,0,0-2,0V28H54V14h2v7a1,1,0,0,0,2,0V14h2v6a1,1,0,0,0,2,0V13A1,1,0,0,0,61,12ZM42,10V33H40V10ZM29.293,5.121a3.921,3.921,0,0,1,5.414,0A4.386,4.386,0,0,1,35.994,8H28.006A4.386,4.386,0,0,1,29.293,5.121ZM24,10V33H22V10ZM8,28V21a1,1,0,0,0-2,0v7H4V14h6V28Zm4,0V10h8V33H17A5.006,5.006,0,0,1,12,28ZM38,41v6H26V41Zm7,0a3,3,0,0,1,3,3v3H44V41Zm3,19H44V49h4V60ZM29,52a1,1,0,0,0,1-1V49h8V60H26V49h2v2A1,1,0,0,0,29,52Zm11-3h2V60H40Zm2-2H40V41h2ZM24,47H22V41h2Zm-4,0H16V44a3,3,0,0,1,3-3h1ZM9,59V53h5v7H10A1,1,0,0,1,9,59Zm7-7V49h4V60H16Zm6,8V49h2V60Zm33-1a1,1,0,0,1-1,1H50V53h5Zm-1-8H50V46h4ZM51.371,39A3.633,3.633,0,0,1,55,42.629V44H50V39ZM48,35v5.026A4.948,4.948,0,0,0,45,39H19a4.948,4.948,0,0,0-3,1.026V35H30.875a1,1,0,0,0,0-2H26V10H38V33H36a1,1,0,0,0,0,2H48Zm-1-2H44V10h8V28A5.006,5.006,0,0,1,47,33Z"/>
<path d="M57.38,24.08a.636.636,0,0,0-.18-.06.956.956,0,0,0-.58.06,1.155,1.155,0,0,0-.33.21A1.052,1.052,0,0,0,56,25a1,1,0,0,0,.08.38,1.032,1.032,0,0,0,.21.33,1.155,1.155,0,0,0,.33.21A1,1,0,0,0,57,26a1.355,1.355,0,0,0,.2-.02.636.636,0,0,0,.18-.06.757.757,0,0,0,.18-.09,1.576,1.576,0,0,0,.15-.12,1.032,1.032,0,0,0,.21-.33A1,1,0,0,0,58,25a1.052,1.052,0,0,0-.29-.71l-.15-.12A.757.757,0,0,0,57.38,24.08Z"/>
<path d="M7.71,16.29a1.032,1.032,0,0,0-.33-.21.956.956,0,0,0-.76,0,.9.9,0,0,0-.54.54A1,1,0,0,0,6,17a1.033,1.033,0,0,0,.29.71,1.014,1.014,0,0,0,1.42,0,1.576,1.576,0,0,0,.12-.15.757.757,0,0,0,.09-.18.636.636,0,0,0,.06-.18A1.5,1.5,0,0,0,8,17a1,1,0,0,0-.08-.38A1.155,1.155,0,0,0,7.71,16.29Z"/>
<path d="M28.29,55.71A1.014,1.014,0,1,0,28,55,1.052,1.052,0,0,0,28.29,55.71Z"/>
</g>
</svg>