<svg viewBox="0 0 64 64" xmlns="http://www.w3.org/2000/svg"><g id="outling-cut"><path d="M41.918,40.26a1,1,0,0,1-.3-1.122,8.616,8.616,0,0,0,.423-5.36,1,1,0,1,0-1.943.473,6.625,6.625,0,0,1-.326,4.119,3.018,3.018,0,0,0,.8,3.366,10.191,10.191,0,0,1,3.368,6.43A9.916,9.916,0,0,1,41.7,55.577a12.377,12.377,0,0,1-8.469,4.365,12.391,12.391,0,0,1-11.987-5.924,1,1,0,1,0-1.75.966A14.3,14.3,0,0,0,32.022,62c.462,0,.927-.02,1.392-.063a14.39,14.39,0,0,0,9.836-5.1,11.908,11.908,0,0,0,2.676-8.9A12.326,12.326,0,0,0,41.918,40.26Z"/><path d="M20.062,50.333a10.077,10.077,0,0,1,3.381-8.6,3,3,0,0,0,.786-3.353,6.637,6.637,0,0,1-.514-2.556A7.3,7.3,0,0,1,27.9,29.409a.794.794,0,0,0,.1.02v2a1,1,0,0,0,0,2v2a1,1,0,0,0,0,2v3.264A6.989,6.989,0,0,0,31.073,53.36a.991.991,0,0,0,1.854,0A6.989,6.989,0,0,0,36,40.693V29.355a8.047,8.047,0,0,1,2.734,2.162,1,1,0,0,0,1.559-1.254A10.155,10.155,0,0,0,36,27.194V12.744l.819-1.171A1,1,0,0,0,37,11V9h1a1,1,0,0,0,0-2H37V6a1,1,0,1,0-2,0v4.684l-.521.744H29.521L29,10.685V4h4.75a1,1,0,0,0,0-2H28a1,1,0,0,0-1,1V4H26a1,1,0,0,0,0,2h1v5a1,1,0,0,0,.181.573L28,12.744v2.685a1,1,0,0,0,0,2v2a1,1,0,0,0,0,2v2a1,1,0,0,0,0,2v1.739a9.41,9.41,0,0,0-6.285,8.653,8.593,8.593,0,0,0,.669,3.325,1,1,0,0,1-.288,1.107,12.053,12.053,0,0,0-4.022,10.305,1,1,0,0,0,.993.887,1.1,1.1,0,0,0,.114-.006A1,1,0,0,0,20.062,50.333ZM30,29.429h4v2H30Zm0,4h4v2H30Zm7,13a5.009,5.009,0,0,1-4,4.9V50a1,1,0,0,0-2,0v1.328a5,5,0,0,1,0-9.8V42a1,1,0,0,0,2,0v-.47A5.008,5.008,0,0,1,37,46.429Zm-5-7a6.956,6.956,0,0,0-2,.295V37.429h4v2.295A6.956,6.956,0,0,0,32,39.429Zm-2-26h4v2H30Zm0,4h4v2H30Zm0,4h4v2H30Zm4,4v2H30v-2Z"/><path d="M29,55.429a1,1,0,0,0,0,2h6a1,1,0,0,0,0-2Z"/><path d="M21.29,4.29A1.025,1.025,0,0,0,21,5a1,1,0,1,0,2,0,.96.96,0,0,0-.62-.92A1,1,0,0,0,21.29,4.29Z"/><path d="M11.71,32.29a1.047,1.047,0,0,0-1.42,0,1.155,1.155,0,0,0-.21.33A.838.838,0,0,0,10,33a.99.99,0,0,0,.29.71,1.155,1.155,0,0,0,.33.21.99.99,0,0,0,1.3-1.3A1.155,1.155,0,0,0,11.71,32.29Z"/><path d="M42.92,7.62a1.155,1.155,0,0,0-.21-.33,1.047,1.047,0,0,0-1.42,0,1.155,1.155,0,0,0-.21.33.942.942,0,0,0,0,.76,1.169,1.169,0,0,0,.21.33,1.155,1.155,0,0,0,.33.21.99.99,0,0,0,1.09-.21,1.169,1.169,0,0,0,.21-.33.943.943,0,0,0,0-.76Z"/><path d="M43.29,22.29a1.032,1.032,0,0,0-.21.33.942.942,0,0,0,0,.76,1.169,1.169,0,0,0,.21.33.99.99,0,0,0,1.09.21.9.9,0,0,0,.54-.54.943.943,0,0,0,0-.76,1.032,1.032,0,0,0-.21-.33A1.047,1.047,0,0,0,43.29,22.29Z"/><path d="M48.38,23.92a.9.9,0,0,0,.54-.54.943.943,0,0,0,0-.76,1.032,1.032,0,0,0-.21-.33,1.047,1.047,0,0,0-1.42,0,1.032,1.032,0,0,0-.21.33A1,1,0,0,0,47,23a.838.838,0,0,0,.08.38,1.169,1.169,0,0,0,.21.33.99.99,0,0,0,1.09.21Z"/><path d="M48,20a1,1,0,0,0,1-1V16a1,1,0,0,0-1.242-.97l-4,1A1,1,0,0,0,43,17v2a1,1,0,0,0,2,0V17.781l2-.5V19A1,1,0,0,0,48,20Z"/><path d="M15.553,27.105l-2,1A1,1,0,0,0,13,29v2a1,1,0,0,0,2,0V29.618l1.447-.723a1,1,0,0,0-.894-1.79Z"/><path d="M48.8,42.02a.636.636,0,0,0-.18.06.782.782,0,0,0-.181.09l-.149.12A1.045,1.045,0,0,0,48,43a1.007,1.007,0,0,0,.29.71,1.155,1.155,0,0,0,.33.21A.99.99,0,0,0,50,43a1.05,1.05,0,0,0-.29-.71A1.018,1.018,0,0,0,48.8,42.02Z"/><path d="M31.29,45.29a1.3,1.3,0,0,0-.221.33A1,1,0,0,0,31,46a.99.99,0,0,0,1.38.92,1.169,1.169,0,0,0,.33-.21A.994.994,0,0,0,33,46a1,1,0,0,0-1.71-.71Z"/><path d="M53.553,37.1l-2,1A1,1,0,0,0,51,39v2a1,1,0,0,0,2,0V39.618l1.447-.723a1,1,0,1,0-.894-1.79Z"/></g></svg>