<svg viewBox="0 0 64 64" xmlns="http://www.w3.org/2000/svg"><g id="outling-cut"><path d="M17,21v9.2L4.775,33.025a1,1,0,0,0-.67.528l-2,4A1,1,0,0,0,3,39h7a1,1,0,0,0,0-2H4.618l1.066-2.132L18.114,32H36.189a1,1,0,0,0,0-2H19V26h2v1a1,1,0,0,0,1,1h4a1,1,0,0,0,1-1V26h4v1a1,1,0,0,0,2,0V26h4v1a1,1,0,0,0,1,1h4a1,1,0,0,0,1-1V26h2v4H41a1,1,0,0,0,0,2h4.886l12.43,2.868L59.382,37H14a1,1,0,0,0,0,2h3.051A13,13,0,0,0,28.115,50.847l-.731.975a2.865,2.865,0,0,0,.7,4.1l.459.306A2.84,2.84,0,0,0,32,56.017a2.9,2.9,0,0,0,.584.393,2.869,2.869,0,0,0,2.873-.18l.456-.3a2.866,2.866,0,0,0,.7-4.1l-.731-.975A13,13,0,0,0,46.949,39H61a1,1,0,0,0,.9-1.447l-2-4a1,1,0,0,0-.67-.528L47,30.2V16.1a5.023,5.023,0,0,0-3.952-4.889L40.21,10.6a1,1,0,1,0-.42,1.955l2.839.608A3.014,3.014,0,0,1,45,16.1V20H43V19a1,1,0,0,0-1-1H38a1,1,0,0,0-1,1v1H33V18.864a1,1,0,0,0-2,0V20H27V19a1,1,0,0,0-1-1H22a1,1,0,0,0-1,1v1H19V16.1a3.014,3.014,0,0,1,2.372-2.934l9.58-2.054a5.065,5.065,0,0,1,2.095,0l2.932.629a1,1,0,1,0,.42-1.955l-2.933-.629a6.955,6.955,0,0,0-2.933,0l-9.58,2.054A5.023,5.023,0,0,0,17,16.1ZM30.521,54.621a.868.868,0,0,1-.867-.053l-.458-.306a.868.868,0,0,1-.213-1.241L30.5,51H31v2.847A.861.861,0,0,1,30.521,54.621Zm4.282-.358-.455.3a.87.87,0,0,1-.869.054A.861.861,0,0,1,33,53.847V51h.5l1.517,2.021a.868.868,0,0,1-.214,1.242Zm-.17-5.293.262-.523a1,1,0,0,0-1.79-.894L32.382,49h-.764L30.9,47.553a1,1,0,1,0-1.79.894l.262.523A11.009,11.009,0,0,1,19.045,39h25.91A11.009,11.009,0,0,1,34.633,48.97ZM45,22v2H43V22Zm-6-2h2v6H39Zm-2,2v2H27V22ZM23,20h2v6H23Zm-2,2v2H19V22Z"/><path d="M23.29,14.29A1.045,1.045,0,0,0,23,15a1,1,0,0,0,.08.38,1.169,1.169,0,0,0,.21.33,1.155,1.155,0,0,0,.33.21.942.942,0,0,0,.76,0,1.169,1.169,0,0,0,.33-.21A1.011,1.011,0,0,0,25,15a1,1,0,0,0-1.71-.71Z"/><path d="M40.38,15.92a1.169,1.169,0,0,0,.33-.21A.994.994,0,0,0,41,15a1.05,1.05,0,0,0-.29-.71,1,1,0,0,0-.16-.12.568.568,0,0,0-.17-.09.609.609,0,0,0-.191-.06,1.025,1.025,0,0,0-.9.27A1.045,1.045,0,0,0,39,15a.99.99,0,0,0,1.38.92Z"/><path d="M31.29,14.16a.984.984,0,0,0-.21.319,1,1,0,0,0-.08.38,1.013,1.013,0,0,0,1.38.931,1.186,1.186,0,0,0,.33-.221,1.009,1.009,0,0,0,0-1.409A1.037,1.037,0,0,0,31.29,14.16Z"/><path d="M11,42a1,1,0,0,0-1-1H3a1,1,0,0,0,0,2h7A1,1,0,0,0,11,42Z"/><path d="M13.8,41.02a.636.636,0,0,0-.18.06.782.782,0,0,0-.181.09,1.7,1.7,0,0,0-.149.12,1.032,1.032,0,0,0-.21.33,1,1,0,0,0,1.63,1.09,1.169,1.169,0,0,0,.21-.33A.852.852,0,0,0,15,42a1.05,1.05,0,0,0-.29-.71A1.01,1.01,0,0,0,13.8,41.02Z"/><path d="M61,41H50a1,1,0,0,0,0,2H61a1,1,0,0,0,0-2Z"/></g></svg>