<svg viewBox="0 0 64 64" xmlns="http://www.w3.org/2000/svg"><g id="outling-cut"><path d="M59.674,48.846a1,1,0,1,0-1.715,1.029L59.234,52H52.569L46.028,41h1.437l1.7,2.555A1,1,0,0,0,50,44h4.434l1.973,3.289a1,1,0,1,0,1.715-1.029l-2.265-3.775-9-15a1.039,1.039,0,0,0-1.714,0l-3.592,5.986-2.767-4.654a1,1,0,0,0-1.719,1.023L39.539,34H35.566l-2.709-4.515A1,1,0,0,0,32,29H21.751l8.164-11.187L35.141,26.6a1,1,0,0,0,1.718-1.022L34.4,21.434A6.979,6.979,0,0,0,36.921,17H39a1,1,0,0,0,0-2H36.92a6.968,6.968,0,0,0-.424-1.6l2.664-1.539a1,1,0,1,0-1-1.732l-2.668,1.54a7.067,7.067,0,0,0-1.166-1.166L35.485,8.5a1,1,0,0,0-1.733-1L32.6,9.5A6.968,6.968,0,0,0,31,9.08V6a1,1,0,0,0-2,0V9.08a6.968,6.968,0,0,0-1.595.424l-1.157-2a1,1,0,0,0-1.733,1l1.159,2.008a7.067,7.067,0,0,0-1.166,1.166l-2.668-1.54a1,1,0,0,0-1,1.732L23.5,13.405A6.968,6.968,0,0,0,23.08,15H21a1,1,0,0,0,0,2h2.078a6.918,6.918,0,0,0,2.031,4.006L10.575,40.924A1,1,0,0,0,12.19,42.1l8.1-11.1H31.434l2.709,4.515A1,1,0,0,0,35,36h5.728l9.514,16H4.968l4.84-6.633a1,1,0,0,0-1.616-1.179l-6,8.223A1,1,0,0,0,3,54H61a1,1,0,0,0,.857-1.515ZM25,16a5,5,0,1,1,8.361,3.7l-2.5-4.206a1,1,0,0,0-1.667-.078l-2.883,3.952A4.956,4.956,0,0,1,25,16ZM46,29.944,53.234,42h-2.7l-1.7-2.555A1,1,0,0,0,48,39H44.839l-2.127-3.577Z"/><path d="M50,13h5a1,1,0,0,0,0-2H50a1,1,0,0,0,0,2Z"/><path d="M49,19a1,1,0,0,0,0,2h5a1,1,0,0,0,0-2Z"/><path d="M46,17H59a1,1,0,0,0,0-2H46a1,1,0,0,0,0,2Z"/><path d="M42.62,16.92A1,1,0,0,0,43,17a.99.99,0,0,0,1-1,1.5,1.5,0,0,0-.02-.2.636.636,0,0,0-.06-.18.757.757,0,0,0-.09-.18,1.576,1.576,0,0,0-.12-.15,1,1,0,0,0-1.09-.21,1.032,1.032,0,0,0-.33.21l-.12.15a.757.757,0,0,0-.09.18.636.636,0,0,0-.06.18A1.5,1.5,0,0,0,42,16a1.052,1.052,0,0,0,.29.71A1.155,1.155,0,0,0,42.62,16.92Z"/><path d="M57.62,19.08a.933.933,0,0,0-.33.21,1.014,1.014,0,0,0,0,1.42.933.933,0,0,0,.33.21A1,1,0,0,0,58,21a1,1,0,0,0,.71-1.71A1,1,0,0,0,57.62,19.08Z"/><path d="M58.62,12.92A1,1,0,0,0,59,13a.99.99,0,0,0,1-1,1,1,0,0,0-.08-.38.933.933,0,0,0-.21-.33,1,1,0,0,0-1.42,1.42A.933.933,0,0,0,58.62,12.92Z"/><path d="M11,21h4a1,1,0,0,0,0-2H11a1,1,0,0,0,0,2Z"/><path d="M7,25H19a1,1,0,0,0,0-2H7a1,1,0,0,0,0,2Z"/><path d="M2.29,24.71A1.052,1.052,0,0,0,3,25a1,1,0,0,0,.38-.08,1.155,1.155,0,0,0,.33-.21,1.155,1.155,0,0,0,.21-.33A1,1,0,0,0,4,24a1.052,1.052,0,0,0-.29-.71,1.155,1.155,0,0,0-.33-.21,1,1,0,0,0-1.09.21A1.052,1.052,0,0,0,2,24a1,1,0,0,0,.08.38A1.155,1.155,0,0,0,2.29,24.71Z"/><path d="M18.08,20.38a.757.757,0,0,0,.09.18l.12.15a1.014,1.014,0,0,0,1.42,0l.12-.15a.757.757,0,0,0,.09-.18.636.636,0,0,0,.06-.18A1.355,1.355,0,0,0,20,20a1,1,0,1,0-2,0,1.355,1.355,0,0,0,.02.2A.636.636,0,0,0,18.08,20.38Z"/><path d="M5,29H9a1,1,0,0,0,0-2H5a1,1,0,0,0,0,2Z"/><path d="M12.29,27.29A1,1,0,0,0,13,29a1.355,1.355,0,0,0,.2-.02.636.636,0,0,0,.18-.06.556.556,0,0,0,.17-.09c.06-.04.11-.08.16-.12a1,1,0,0,0-1.42-1.42Z"/></g></svg>